<?xml version="1.0" encoding="UTF-8"?>
<svg width="331px" height="97px" viewBox="0 0 331 97" version="1.1" xmlns="http://www.w3.org/2000/svg" xmlns:xlink="http://www.w3.org/1999/xlink">
    <!-- Generator: Sketch 48.2 (47327) - http://www.bohemiancoding.com/sketch -->
    <title>eMedia_blueBGwhite</title>
    <desc>Created with Sketch.</desc>
    <defs>
        <polygon id="path-1" points="0.995674809 48.0087456 0.995674809 0.00874557397 31.4956843 0.00874557397 61.9956938 0.00874557397 61.9956938 48.0087456"></polygon>
        <polygon id="path-3" points="0.995674809 48.0087456 0.995674809 0.00874557397 31.4956843 0.00874557397 61.9956938 0.00874557397 61.9956938 48.0087456"></polygon>
    </defs>
    <g id="Page-1" stroke="none" stroke-width="1" fill="none" fill-rule="evenodd">
        <g id="eMedia_blueBGwhite" transform="translate(-8.000000, -9.000000)">
            <path d="M142.191667,9.79669347 L142.191667,63.4249887 L134.844425,63.4249887 L134.844425,17.2992522 L134.943763,14.0792073 L134.752613,14.0792073 L134.182925,15.3350734 C133.900339,15.9624857 133.709188,16.3680294 133.61399,16.5513574 L132.378663,19.0665617 L110.339948,63.4249887 L103.042375,63.4249887 L80.9547435,19.5780051 L79.6776495,17.1023829 L79.1079617,15.8465168 C78.9472902,15.5569419 78.7565162,15.1517454 78.5386502,14.6257191 L78.3471237,14.6257191 L78.3930298,16.0794961 L78.4426988,17.570772 L78.4426988,63.4249887 L71.0958333,63.4249887 L71.0958333,9.79669347 L83.7990435,9.79669347 L101.051102,44.4863056 L103.79945,50.1080164 L105.175882,52.8950878 L106.502269,55.6852841 L106.689656,55.6852841 L108.015667,52.8950878 C108.680929,51.5617934 109.124187,50.6305706 109.346569,50.1080164 L112.140447,44.5283182 L129.301069,9.79669347 L142.191667,9.79669347" id="Fill-1" fill="#278DAE" fill-rule="nonzero"></path>
            <polyline id="Fill-2" fill="#278DAE" fill-rule="nonzero" points="159.398075 14.9323074 159.398075 33.1522615 192.164684 33.1522615 192.164684 38.2913476 159.398075 38.2913476 159.398075 58.2886803 193.5125 58.2886803 193.5125 63.4249887 152.079167 63.4249887 152.079167 9.79669347 193.5125 9.79669347 193.5125 14.9323074 159.398075 14.9323074"></polyline>
            <path d="M210.240277,58.2886803 L231.294373,58.2886803 C239.032177,58.2886803 244.021384,57.0050373 246.262744,54.4436537 C248.505227,51.8791453 249.627593,46.1619511 249.627593,37.296585 C249.627593,27.5680496 248.657698,21.4092016 246.716036,18.8193467 C244.771376,16.2267141 240.120452,14.9323074 232.759891,14.9323074 L210.240277,14.9323074 L210.240277,58.2886803 Z M202.929167,63.4249887 L202.929167,9.79669347 L232.854671,9.79669347 C242.114561,9.79669347 248.386847,11.4858803 251.674899,14.8621706 C254.964074,18.2450579 256.604167,24.7146607 256.604167,34.2741038 C256.604167,45.9001532 255.142394,53.6679819 252.219224,57.5730762 C249.296802,61.4743512 243.454207,63.4249887 234.70043,63.4249887 L202.929167,63.4249887 Z" id="Fill-3" fill="#278DAE" fill-rule="nonzero"></path>
            <polygon id="Fill-4" fill="#278DAE" fill-rule="nonzero" points="266.491667 63.4249887 274.025 63.4249887 274.025 9.79669347 266.491667 9.79669347"></polygon>
            <path d="M324.140022,47.4490663 L309.712555,14.7455073 L295.477399,47.4490663 L324.140022,47.4490663 Z M326.284854,52.0274048 L293.381587,52.0274048 L288.38188,63.4249887 L280.616667,63.4249887 L304.430038,9.79669347 L314.716033,9.79669347 L339,63.4249887 L331.334336,63.4249887 L326.284854,52.0274048 Z" id="Fill-5" fill="#278DAE" fill-rule="nonzero"></path>
            <polygon id="Fill-6" fill="#278DAE" fill-rule="nonzero" transform="translate(35.783333, 60.814762) rotate(10.500000) translate(-35.783333, -60.814762) " points="8.94583333 61.0366318 61.0828278 52.5094951 62.458482 59.7438473 62.6208333 60.5925429 10.4830855 69.120029"></polygon>
            <g id="Group-11" transform="translate(35.897984, 30.666052) rotate(10.500000) translate(-35.897984, -30.666052) translate(4.897984, 6.166052)">
                <g id="Fill-10-Clipped">
                    <mask id="mask-2" fill="white">
                        <use xlink:href="#path-1"></use>
                    </mask>
                    <g id="path-1"></g>
                    <path d="M52.9014669,8.53313186 L13.7810585,15.0479379 L15.2368419,22.8451369 L54.3579859,16.3306783 L55.9535363,24.8654877 L16.8294498,31.3827259 L18.285601,39.1806197 L57.406745,32.6626867 L58.8419311,40.3553069 L58.9956748,41.1846409 L19.357393,47.7873488 C16.4230221,48.2768886 13.6714518,47.956551 11.2339893,46.8068793 C8.79799804,45.6770116 7.22929765,43.898825 6.83353643,41.6793923 L2.11345857,16.4008607 C1.67503164,14.1435574 2.47023216,11.9540044 4.3375925,10.1362098 C6.18361999,8.28992541 8.67183995,7.11141641 11.6705772,6.61249574 L51.310698,0.00874557397 L52.9014669,8.53313186 Z" id="Fill-10" fill="#278DAE" fill-rule="nonzero" mask="url(#mask-2)"></path>
                </g>
                <g id="278DAE-Clipped">
                    <mask id="mask-4" fill="white">
                        <use xlink:href="#path-3"></use>
                    </mask>
                    <g id="path-1"></g>
                    <text id="278DAE" fill="#278DAE" mask="url(#mask-4)" font-family="LucidaGrande, Lucida Grande" font-size="30" font-weight="normal">
                        <tspan x="219.852137" y="47.3761652">278DAE</tspan>
                    </text>
                </g>
            </g>
            <path d="M9.58037892,105.159574 L9.58037892,83.4798865 L16.1428789,83.4798865 C18.2229674,83.4798865 19.8171898,83.9388663 20.9255938,84.8568396 C22.0339977,85.774813 22.5881914,87.1078074 22.5881914,88.8558631 C22.5881914,91.7465025 21.1282451,93.7972633 18.2083086,95.0082068 L25.4446367,105.159574 L21.6653399,105.159574 L15.4983477,95.9896521 L12.6272539,95.9896521 L12.6272539,105.159574 L9.58037892,105.159574 Z M12.6272539,93.6898474 L13.6233477,93.6898474 C17.4905545,93.6898474 19.4241289,92.1713079 19.4241289,89.1341834 C19.4241289,86.8978441 17.8030514,85.7796912 14.5608477,85.7796912 L12.6272539,85.7796912 L12.6272539,93.6898474 Z M39.2501053,105.159574 L39.2501053,83.4798865 L51.3643631,83.4798865 L51.3643631,85.7796912 L42.3262772,85.7796912 L42.3262772,92.737699 L49.8995194,92.737699 L49.8995194,95.0082068 L42.3262772,95.0082068 L42.3262772,102.859769 L51.9942459,102.859769 L51.9942459,105.159574 L39.2501053,105.159574 Z M70.4579176,105.701566 C69.0028322,105.701566 67.1424992,105.384187 64.8768629,104.749418 L64.8768629,101.702543 C67.3182814,102.835361 69.3250972,103.401762 70.8973707,103.401762 C72.1083143,103.401762 73.0824256,103.084382 73.819734,102.449613 C74.5570424,101.814844 74.925691,100.979892 74.925691,99.9447303 C74.925691,99.0951166 74.6839942,98.3724676 74.2005934,97.7767615 C73.7171925,97.1810554 72.8260882,96.5169995 71.5272535,95.784574 L70.0331129,94.9203162 C68.1874006,93.8656234 66.886144,92.871981 66.1293043,91.9393592 C65.3724646,91.0067373 64.9940504,89.9203224 64.9940504,88.6800818 C64.9940504,87.0101516 65.5995131,85.6356536 66.8104567,84.5565467 C68.0214002,83.4774397 69.5643535,82.9378943 71.4393629,82.9378943 C73.1092931,82.9378943 74.8719708,83.2162118 76.7274489,83.7728553 L76.7274489,86.5853553 C74.4422812,85.6869133 72.7381967,85.237699 71.6151442,85.237699 C70.5506857,85.237699 69.6717883,85.5208993 68.9784254,86.0873084 C68.2850626,86.6537175 67.9383864,87.366601 67.9383864,88.2259803 C67.9383864,88.9486401 68.1922901,89.5882822 68.7001051,90.1449256 C69.2079201,90.701569 70.1356452,91.3656248 71.4833082,92.1371131 L73.0360426,93.0160193 C74.911052,94.0804778 76.2196326,95.0863271 76.9618239,96.0335974 C77.7040151,96.9808678 78.0751051,98.1185517 78.0751051,99.4466834 C78.0751051,101.331458 77.3793113,102.845115 75.9877028,103.987699 C74.5960942,105.130283 72.752851,105.701566 70.4579176,105.701566 Z M93.0670971,105.159574 L93.0670971,83.4798865 L105.181355,83.4798865 L105.181355,85.7796912 L96.143269,85.7796912 L96.143269,92.737699 L103.716511,92.737699 L103.716511,95.0082068 L96.143269,95.0082068 L96.143269,102.859769 L105.811238,102.859769 L105.811238,105.159574 L93.0670971,105.159574 Z M131.013191,96.8685584 L127.321784,87.5228553 L123.61573,96.8685584 L131.013191,96.8685584 Z M134.265144,105.159574 L131.906745,99.1537146 L122.722175,99.1537146 L120.33448,105.159574 L117.478034,105.159574 L126.076667,83.4798865 L129.123542,83.4798865 L137.590339,105.159574 L134.265144,105.159574 Z M151.425105,105.159574 L151.425105,83.4798865 L157.987605,83.4798865 C160.067693,83.4798865 161.661915,83.9388663 162.770319,84.8568396 C163.878723,85.774813 164.432917,87.1078074 164.432917,88.8558631 C164.432917,91.7465025 162.972971,93.7972633 160.053034,95.0082068 L167.289362,105.159574 L163.510065,105.159574 L157.343073,95.9896521 L154.47198,95.9896521 L154.47198,105.159574 L151.425105,105.159574 Z M154.47198,93.6898474 L155.468073,93.6898474 C159.33528,93.6898474 161.268855,92.1713079 161.268855,89.1341834 C161.268855,86.8978441 159.647777,85.7796912 156.405573,85.7796912 L154.47198,85.7796912 L154.47198,93.6898474 Z M190.38194,105.701566 C187.012783,105.701566 184.41027,104.712807 182.574323,102.735258 C180.738376,100.757709 179.820417,97.9574437 179.820417,94.3343787 C179.820417,90.7210794 180.755466,87.918373 182.625593,85.9261756 C184.495719,83.9339781 187.12997,82.9378943 190.528425,82.9378943 C192.471794,82.9378943 194.747162,83.255274 197.354597,83.8900428 L197.354597,86.7757849 C194.385832,85.7503892 192.095816,85.237699 190.484479,85.237699 C188.130952,85.237699 186.309681,86.0335895 185.020612,87.6253943 C183.731543,89.2171991 183.087018,91.4632704 183.087018,94.3636756 C183.087018,97.1273613 183.775488,99.3075152 185.152448,100.904203 C186.529408,102.500891 188.409272,103.299222 190.792097,103.299222 C192.842888,103.299222 195.040132,102.669346 197.383893,101.409574 L197.383893,104.046293 C195.245211,105.149814 192.91125,105.701566 190.38194,105.701566 Z M212.551667,105.159574 L212.551667,83.4798865 L215.627839,83.4798865 L215.627839,92.6205115 L225.940339,92.6205115 L225.940339,83.4798865 L229.01651,83.4798865 L229.01651,105.159574 L225.940339,105.159574 L225.940339,94.9203162 L215.627839,94.9203162 L215.627839,105.159574 L212.551667,105.159574 Z M265.489752,105.159574 L265.489752,83.4798865 L268.565924,83.4798865 L268.565924,102.859769 L278.321783,102.859769 L278.321783,105.159574 L265.489752,105.159574 Z M303.172174,96.8685584 L299.480768,87.5228553 L295.774713,96.8685584 L303.172174,96.8685584 Z M306.424127,105.159574 L304.065729,99.1537146 L294.881158,99.1537146 L292.493463,105.159574 L289.637018,105.159574 L298.23565,83.4798865 L301.282525,83.4798865 L309.749322,105.159574 L306.424127,105.159574 Z M323.584088,105.159574 L323.584088,83.4798865 L329.209088,83.4798865 C331.377067,83.4798865 333.039648,83.8900386 334.196881,84.7103553 C335.354113,85.5306719 335.932721,86.7123007 335.932721,88.2552771 C335.932721,90.8822434 334.44836,92.7523419 331.479596,93.8656287 C335.024535,94.9496185 336.796978,96.9076067 336.796978,99.7396521 C336.796978,101.497473 336.211047,102.840233 335.039166,103.767972 C333.867285,104.695711 332.177849,105.159574 329.970807,105.159574 L323.584088,105.159574 Z M326.630963,102.859769 L327.260846,102.859769 C329.516716,102.859769 330.976663,102.718169 331.640728,102.434965 C332.910266,101.897853 333.545025,100.901769 333.545025,99.4466834 C333.545025,98.1576144 332.968859,97.0858478 331.81651,96.2313513 C330.66416,95.3768549 329.223745,94.9496131 327.495221,94.9496131 L326.630963,94.9496131 L326.630963,102.859769 Z M326.630963,93.0013709 L327.612408,93.0013709 C329.253041,93.0013709 330.525001,92.6498119 331.428326,91.9466834 C332.331651,91.2435549 332.783307,90.2523538 332.783307,88.9730506 C332.783307,86.8441337 331.132932,85.7796912 327.832135,85.7796912 L326.630963,85.7796912 L326.630963,93.0013709 Z" id="RESEARCH-LAB" fill="#278DAE"></path>
        </g>
    </g>
</svg>